<svg width="110" height="25" viewBox="0 0 110 25" fill="none" xmlns="http://www.w3.org/2000/svg">
<path d="M3.888 20V12.056L0.192 0.559999H4.248L6.096 6.704L7.752 0.559999H11.64L8.016 12.056V20H3.888ZM17.2918 20.24C16.2998 20.24 15.4358 20.072 14.6998 19.736C13.9798 19.4 13.4198 18.896 13.0198 18.224C12.6358 17.552 12.4438 16.712 12.4438 15.704V10.424C12.4438 9.416 12.6358 8.576 13.0198 7.904C13.4198 7.232 13.9798 6.728 14.6998 6.392C15.4358 6.056 16.2998 5.888 17.2918 5.888C18.2838 5.888 19.1398 6.056 19.8598 6.392C20.5958 6.728 21.1638 7.232 21.5638 7.904C21.9638 8.576 22.1638 9.416 22.1638 10.424V15.704C22.1638 16.712 21.9638 17.552 21.5638 18.224C21.1638 18.896 20.5958 19.4 19.8598 19.736C19.1398 20.072 18.2838 20.24 17.2918 20.24ZM17.3158 17.648C17.5718 17.648 17.7718 17.584 17.9158 17.456C18.0598 17.312 18.1558 17.12 18.2038 16.88C18.2678 16.624 18.2998 16.32 18.2998 15.968V10.16C18.2998 9.808 18.2678 9.512 18.2038 9.272C18.1558 9.016 18.0598 8.824 17.9158 8.696C17.7718 8.552 17.5718 8.48 17.3158 8.48C17.0598 8.48 16.8598 8.552 16.7158 8.696C16.5718 8.824 16.4678 9.016 16.4038 9.272C16.3398 9.512 16.3078 9.808 16.3078 10.16V15.968C16.3078 16.32 16.3398 16.624 16.4038 16.88C16.4678 17.12 16.5718 17.312 16.7158 17.456C16.8598 17.584 17.0598 17.648 17.3158 17.648ZM26.7814 20.24C26.2214 20.24 25.7414 20.104 25.3414 19.832C24.9574 19.544 24.6694 19.152 24.4774 18.656C24.2854 18.16 24.1894 17.608 24.1894 17V6.128H28.1014V16.544C28.1014 16.88 28.1574 17.144 28.2694 17.336C28.3974 17.512 28.6134 17.6 28.9174 17.6C29.0934 17.6 29.2774 17.56 29.4694 17.48C29.6614 17.384 29.8614 17.28 30.0694 17.168V6.128H33.9574V20H30.0694V18.728C29.5734 19.192 29.0454 19.56 28.4854 19.832C27.9414 20.104 27.3734 20.24 26.7814 20.24ZM36.4751 20V6.128H40.3871V8.432C40.8351 7.632 41.2831 7.024 41.7311 6.608C42.1791 6.176 42.7231 5.96 43.3631 5.96C43.4911 5.96 43.6031 5.968 43.6991 5.984C43.7951 5.984 43.8831 6 43.9631 6.032V9.92C43.7871 9.84 43.5871 9.776 43.3631 9.728C43.1551 9.664 42.9311 9.632 42.6911 9.632C42.2431 9.632 41.8271 9.752 41.4431 9.992C41.0591 10.232 40.7071 10.56 40.3871 10.976V20H36.4751ZM45.8306 20V0.559999H50.7506C52.4466 0.559999 53.7666 0.775999 54.7106 1.208C55.6546 1.624 56.3186 2.288 56.7026 3.2C57.0866 4.096 57.2786 5.264 57.2786 6.704V13.76C57.2786 15.216 57.0866 16.408 56.7026 17.336C56.3186 18.248 55.6546 18.92 54.7106 19.352C53.7826 19.784 52.4786 20 50.7986 20H45.8306ZM50.1266 17.024H50.7986C51.4546 17.024 51.9266 16.928 52.2146 16.736C52.5026 16.544 52.6786 16.256 52.7426 15.872C52.8226 15.488 52.8626 15.008 52.8626 14.432V5.96C52.8626 5.384 52.8146 4.92 52.7186 4.568C52.6386 4.216 52.4546 3.96 52.1666 3.8C51.8786 3.64 51.4146 3.56 50.7746 3.56H50.1266V17.024ZM64.2131 20.24C63.2051 20.24 62.3411 20.064 61.6211 19.712C60.9011 19.344 60.3491 18.816 59.9651 18.128C59.5811 17.424 59.3891 16.584 59.3891 15.608V10.52C59.3891 9.528 59.5811 8.688 59.9651 8C60.3491 7.312 60.9011 6.792 61.6211 6.44C62.3571 6.072 63.2211 5.888 64.2131 5.888C65.2371 5.888 66.0851 6.064 66.7571 6.416C67.4451 6.768 67.9571 7.288 68.2931 7.976C68.6451 8.664 68.8211 9.512 68.8211 10.52V13.304H63.2531V15.968C63.2531 16.32 63.2931 16.608 63.3731 16.832C63.4531 17.056 63.5651 17.216 63.7091 17.312C63.8531 17.408 64.0211 17.456 64.2131 17.456C64.4051 17.456 64.5731 17.416 64.7171 17.336C64.8771 17.24 64.9971 17.096 65.0771 16.904C65.1731 16.712 65.2211 16.448 65.2211 16.112V14.648H68.8211V15.992C68.8211 17.4 68.4131 18.464 67.5971 19.184C66.7811 19.888 65.6531 20.24 64.2131 20.24ZM63.2531 11.48H65.2211V10.088C65.2211 9.72 65.1731 9.432 65.0771 9.224C64.9971 9.016 64.8771 8.872 64.7171 8.792C64.5731 8.712 64.3971 8.672 64.1891 8.672C63.9971 8.672 63.8291 8.72 63.6851 8.816C63.5571 8.912 63.4531 9.08 63.3731 9.32C63.2931 9.544 63.2531 9.872 63.2531 10.304V11.48ZM75.2226 20.24C74.0066 20.24 72.9906 19.968 72.1746 19.424C71.3746 18.88 70.7186 17.992 70.2066 16.76L72.8706 15.584C73.1266 16.208 73.4226 16.704 73.7586 17.072C74.1106 17.424 74.4946 17.6 74.9106 17.6C75.2146 17.6 75.4386 17.536 75.5826 17.408C75.7426 17.28 75.8226 17.104 75.8226 16.88C75.8226 16.512 75.6786 16.176 75.3906 15.872C75.1186 15.568 74.6226 15.12 73.9026 14.528L72.8946 13.688C72.1586 13.064 71.5746 12.464 71.1426 11.888C70.7266 11.296 70.5186 10.568 70.5186 9.704C70.5186 8.952 70.7106 8.288 71.0946 7.712C71.4946 7.136 72.0226 6.688 72.6786 6.368C73.3346 6.048 74.0386 5.888 74.7906 5.888C75.9266 5.888 76.8786 6.2 77.6466 6.824C78.4146 7.448 78.9506 8.328 79.2546 9.464L76.7346 10.616C76.6386 10.312 76.5026 10.008 76.3266 9.704C76.1506 9.4 75.9346 9.144 75.6786 8.936C75.4386 8.728 75.1746 8.624 74.8866 8.624C74.6306 8.624 74.4226 8.696 74.2626 8.84C74.1186 8.984 74.0466 9.176 74.0466 9.416C74.0466 9.72 74.2146 10.048 74.5506 10.4C74.9026 10.752 75.3826 11.176 75.9906 11.672L76.9746 12.536C77.3746 12.872 77.7666 13.232 78.1506 13.616C78.5346 14 78.8466 14.424 79.0866 14.888C79.3426 15.352 79.4706 15.88 79.4706 16.472C79.4706 17.272 79.2706 17.96 78.8706 18.536C78.4706 19.096 77.9426 19.52 77.2866 19.808C76.6466 20.096 75.9586 20.24 75.2226 20.24ZM81.1464 20V6.128H85.0584V20H81.1464ZM81.1224 3.776V1.064H85.0584V3.776H81.1224ZM91.986 24.8C90.946 24.8 90.042 24.696 89.274 24.488C88.506 24.28 87.906 23.968 87.474 23.552C87.058 23.136 86.85 22.608 86.85 21.968C86.85 21.536 86.938 21.144 87.114 20.792C87.306 20.456 87.562 20.16 87.882 19.904C88.218 19.632 88.594 19.4 89.01 19.208C88.402 19.032 87.93 18.768 87.594 18.416C87.258 18.064 87.09 17.592 87.09 17C87.09 16.44 87.226 15.96 87.498 15.56C87.77 15.144 88.146 14.728 88.626 14.312C88.178 13.912 87.834 13.424 87.594 12.848C87.37 12.256 87.258 11.544 87.258 10.712C87.258 9.672 87.45 8.792 87.834 8.072C88.218 7.352 88.778 6.808 89.514 6.44C90.266 6.072 91.17 5.888 92.226 5.888C92.946 5.888 93.578 5.976 94.122 6.152C94.666 6.328 95.13 6.6 95.514 6.968C95.69 6.696 95.922 6.432 96.21 6.176C96.498 5.92 96.826 5.704 97.194 5.528L97.698 5.288L98.61 7.16C98.466 7.208 98.266 7.288 98.01 7.4C97.754 7.512 97.482 7.632 97.194 7.76C96.922 7.888 96.674 8.016 96.45 8.144C96.626 8.496 96.762 8.896 96.858 9.344C96.954 9.792 97.002 10.256 97.002 10.736C97.002 11.728 96.818 12.584 96.45 13.304C96.098 14.024 95.57 14.576 94.866 14.96C94.162 15.328 93.282 15.512 92.226 15.512C91.778 15.512 91.354 15.48 90.954 15.416C90.554 15.336 90.186 15.24 89.85 15.128C89.754 15.256 89.666 15.392 89.586 15.536C89.522 15.664 89.49 15.808 89.49 15.968C89.49 16.16 89.586 16.312 89.778 16.424C89.97 16.536 90.314 16.624 90.81 16.688L94.458 17.096C95.642 17.224 96.514 17.608 97.074 18.248C97.634 18.872 97.914 19.696 97.914 20.72C97.914 21.6 97.714 22.344 97.314 22.952C96.93 23.56 96.298 24.016 95.418 24.32C94.554 24.64 93.41 24.8 91.986 24.8ZM92.49 21.968C93.37 21.968 94.042 21.896 94.506 21.752C94.986 21.608 95.226 21.312 95.226 20.864C95.226 20.64 95.162 20.456 95.034 20.312C94.906 20.184 94.69 20.08 94.386 20C94.098 19.904 93.682 19.832 93.138 19.784L90.57 19.52C90.41 19.632 90.266 19.76 90.138 19.904C90.026 20.032 89.93 20.168 89.85 20.312C89.786 20.472 89.754 20.64 89.754 20.816C89.754 21.2 89.962 21.488 90.378 21.68C90.794 21.872 91.498 21.968 92.49 21.968ZM92.226 13.184C92.45 13.184 92.634 13.144 92.778 13.064C92.922 12.968 93.026 12.824 93.09 12.632C93.17 12.44 93.226 12.184 93.258 11.864C93.29 11.544 93.306 11.16 93.306 10.712C93.306 10.248 93.29 9.864 93.258 9.56C93.226 9.24 93.17 8.984 93.09 8.792C93.026 8.584 92.922 8.44 92.778 8.36C92.634 8.264 92.45 8.216 92.226 8.216C92.002 8.216 91.818 8.264 91.674 8.36C91.53 8.44 91.418 8.576 91.338 8.768C91.274 8.96 91.226 9.216 91.194 9.536C91.162 9.856 91.146 10.248 91.146 10.712C91.146 11.16 91.162 11.544 91.194 11.864C91.226 12.168 91.274 12.424 91.338 12.632C91.418 12.824 91.53 12.968 91.674 13.064C91.818 13.144 92.002 13.184 92.226 13.184ZM99.4974 20V6.128H103.409V7.52C103.921 7.008 104.449 6.608 104.993 6.32C105.553 6.032 106.137 5.888 106.745 5.888C107.321 5.888 107.793 6.032 108.161 6.32C108.545 6.592 108.833 6.976 109.025 7.472C109.217 7.952 109.313 8.504 109.313 9.128V20H105.425V9.68C105.425 9.344 105.369 9.088 105.257 8.912C105.145 8.736 104.937 8.648 104.633 8.648C104.473 8.648 104.281 8.696 104.057 8.792C103.849 8.872 103.633 8.992 103.409 9.152V20H99.4974Z" fill="#EEEEEE"/>
</svg>
